<?xml version="1.0" encoding="UTF-8"?>
<svg width="30px" height="30px" viewBox="0 0 30 30" version="1.1" xmlns="http://www.w3.org/2000/svg" xmlns:xlink="http://www.w3.org/1999/xlink">
    <title>已结束english</title>
    <g id="红包" stroke="none" stroke-width="1" fill="none" fill-rule="evenodd">
        <g id="03红包历史-我发出的" transform="translate(-223.000000, -341.000000)" fill="#999999">
            <g id="编组-3备份-2" transform="translate(0.000000, 285.000000)">
                <g id="已结束english" transform="translate(223.000000, 56.000000)">
                    <g id="编组" transform="translate(15.000000, 15.000000) scale(-1, 1) translate(-15.000000, -15.000000) " fill-rule="nonzero">
                        <path d="M20.1289212,0.9084049 C27.9113248,3.74096817 31.9241584,12.3465175 29.0915951,20.1289212 C26.2590318,27.9113248 17.6534825,31.9241584 9.87107884,29.0915951 C2.0886752,26.2590318 -1.92415837,17.6534825 0.9084049,9.87107884 C3.74096817,2.0886752 12.3465175,-1.92415837 20.1289212,0.9084049 Z M19.8272474,1.73724691 C12.5023935,-0.928781865 4.40327568,2.84789881 1.73724691,10.1727526 C-0.928781865,17.4976065 2.84789881,25.5967243 10.1727526,28.2627531 C17.4976065,30.9287819 25.5967243,27.1521012 28.2627531,19.8272474 C30.9287819,12.5023935 27.1521012,4.40327568 19.8272474,1.73724691 Z M12.2806856,26.6033386 C12.2497,26.7161915 12.1751297,26.8121014 12.0733962,26.8699475 C11.9716626,26.9277936 11.8511086,26.9428323 11.7382818,26.9117517 C11.5184782,26.851335 11.2997052,26.784765 11.0823319,26.7116924 C10.8560073,26.6310095 10.735918,26.3840005 10.8122526,26.1561726 C10.8885873,25.9283447 11.1332517,25.8035479 11.3624994,25.8755063 C11.5639925,25.9429594 11.767301,26.0048635 11.9721947,26.0611483 C12.0849909,26.0921806 12.1808355,26.1667578 12.2386367,26.2684681 C12.2964379,26.3701785 12.311459,26.4906871 12.2803944,26.6034743 L12.2806856,26.6033386 Z M9.23188969,24.9133632 C9.41553887,25.0199435 9.60211745,25.1213942 9.79140893,25.2175977 C10.0085506,25.3280124 10.0950699,25.5935494 9.98465516,25.8106911 C9.87424043,26.0278327 9.60870349,26.114352 9.3915618,26.0039373 C9.1874558,25.9003918 8.98659326,25.7912566 8.78918768,25.6766094 C8.57848204,25.554382 8.5067562,25.2844865 8.62898353,25.0737809 C8.75121085,24.8630753 9.02110635,24.7913494 9.23181198,24.9135768 L9.23188969,24.9133632 Z M14.6921842,26.9159809 C14.6848184,27.0327379 14.6313635,27.1417842 14.5435833,27.2191217 C14.4558031,27.2964592 14.3408912,27.3357502 14.2241365,27.3283478 C13.9960304,27.3139933 13.7679651,27.2928834 13.5408528,27.2658338 C13.2989967,27.2368964 13.1263921,27.0173748 13.1553296,26.7755188 C13.184267,26.5336627 13.4037885,26.3610581 13.6456446,26.3899955 C13.8564536,26.4152207 14.0679273,26.4345409 14.2798173,26.4479332 C14.3965743,26.455299 14.5056206,26.508754 14.5829581,26.5965341 C14.6602956,26.6843143 14.6995866,26.7992262 14.6921842,26.9159809 L14.6921842,26.9159809 Z M7.34335197,23.5412326 C7.50120738,23.6828314 7.66327645,23.8201608 7.82891865,23.9529877 C7.95400928,24.0507956 8.01686261,24.2082989 7.99347881,24.365357 C7.97009501,24.5224151 7.86408472,24.654777 7.71592672,24.7119019 C7.56776873,24.7690268 7.40033966,24.7420942 7.27757037,24.6413879 C7.0990356,24.4984237 6.92453592,24.3504921 6.75427616,24.1977667 C6.63699764,24.0925384 6.58476644,23.9327361 6.61725752,23.7785558 C6.64974861,23.6243755 6.76202583,23.4992409 6.91179543,23.4502888 C7.06156503,23.4013368 7.22607346,23.4360043 7.34335197,23.5412326 L7.34335197,23.5412326 Z M17.1008592,26.7321607 C17.1172608,26.8479795 17.0869781,26.96557 17.0166739,27.0590597 C16.9463697,27.1525494 16.8418038,27.214279 16.725983,27.2306666 C16.4995521,27.2628626 16.2720747,27.2886329 16.0441916,27.3082107 C15.8014739,27.3289699 15.5878837,27.149037 15.5671244,26.9063194 C15.5463652,26.6636017 15.726298,26.4500115 15.9690157,26.4292522 C16.1808253,26.4113197 16.3917243,26.3872528 16.602062,26.3574204 C16.717906,26.3409328 16.8355538,26.371158 16.9291051,26.441442 C17.0226564,26.5117259 17.0844418,26.6163067 17.1008592,26.7321607 Z M5.77092835,21.8087921 C5.89687777,21.979861 6.02755384,22.147399 6.16280544,22.3112124 C6.26661613,22.4323034 6.29695534,22.6000101 6.24214802,22.7497961 C6.18734071,22.8995821 6.05592855,23.0081033 5.89848122,23.033599 C5.74103389,23.0590946 5.58208944,22.9975911 5.48281245,22.8727562 C5.33713466,22.6963713 5.19638367,22.5159746 5.06072227,22.3317747 C4.96534131,22.2050061 4.94539732,22.0367766 5.0084935,21.8912201 C5.07158968,21.7456636 5.20800217,21.645212 5.3657268,21.6281601 C5.52345143,21.6111083 5.67818099,21.6800841 5.77092835,21.8087921 L5.77092835,21.8087921 Z M19.4330585,26.0615816 C19.4725872,26.1717004 19.466739,26.2930136 19.4168011,26.3988194 C19.3668632,26.5046252 19.2769286,26.5862516 19.1667925,26.6257321 C18.9516085,26.7029861 18.7343296,26.7742754 18.5152047,26.8395184 C18.2817731,26.9090607 18.0361642,26.7762021 17.966622,26.5427705 C17.8970797,26.3093389 18.0299382,26.06373 18.2633698,25.9941877 C18.466983,25.9335632 18.6688804,25.8673183 18.8688303,25.7955292 C18.9789313,25.7559659 19.1002408,25.7617719 19.2060601,25.8116692 C19.3118794,25.8615666 19.3935361,25.951466 19.4330585,26.0615816 L19.4330585,26.0615816 Z M4.58570007,19.8004272 C4.67437544,19.9932533 4.76871978,20.1837904 4.86824801,20.3713784 C4.94199441,20.5106493 4.93583875,20.6786842 4.8520998,20.8121859 C4.76836085,20.9456876 4.61976056,21.024374 4.46227522,21.0186048 C4.30478987,21.0128356 4.16234525,20.9234872 4.08859885,20.7842163 C3.98158296,20.5821886 3.88016413,20.3772453 3.78445825,20.1696206 C3.68248685,19.9484227 3.77913899,19.6864423 4.00033684,19.5844709 C4.2215347,19.4824995 4.48351514,19.5791516 4.58548655,19.8003495 L4.58570007,19.8004272 Z M21.5888027,24.9304786 C21.7158123,25.1382244 21.6501003,25.4097788 21.442141,25.5367107 C21.2470182,25.65585 21.0486414,25.7695762 20.8472376,25.8777593 C20.7083102,25.9537762 20.5392907,25.9494682 20.4044162,25.8664726 C20.2695417,25.783477 20.1895218,25.6345375 20.1947687,25.4762597 C20.2000155,25.3179819 20.2897234,25.1746688 20.4297982,25.1007877 C20.6169403,25.0002428 20.8012681,24.8945456 20.9825706,24.7838169 C21.0824092,24.7228689 21.202371,24.7040805 21.3160631,24.7315852 C21.4297552,24.75909 21.5278634,24.8306347 21.5888027,24.9304786 L21.5888027,24.9304786 Z M3.8255014,17.5809269 C3.87346564,17.7879505 3.92729274,17.9934812 3.98655567,18.1973634 C4.05467731,18.4312127 3.92032848,18.6760086 3.68647915,18.7441302 C3.45262983,18.8122518 3.207834,18.677903 3.13971235,18.4440537 C3.07573656,18.2244378 3.01786065,18.0030908 2.96615131,17.7802676 C2.93054251,17.6267595 2.97953423,17.4659151 3.09467175,17.3583229 C3.20980928,17.2507307 3.37360049,17.2127366 3.52434681,17.2586526 C3.67509313,17.3045685 3.78989262,17.4274188 3.8255014,17.5809269 Z M23.4604935,23.3966482 C23.6267169,23.5746672 23.6171616,23.853729 23.4391506,24.019961 C23.2719579,24.1762126 23.1004453,24.3277767 22.9248123,24.4744771 C22.803825,24.5754809 22.6381433,24.6042663 22.4901778,24.5499902 C22.3422123,24.4957141 22.2344426,24.3666222 22.2074643,24.2113423 C22.1804861,24.0560623 22.2383981,23.898185 22.3593853,23.7971812 C22.522525,23.6611901 22.6818419,23.5204225 22.8368894,23.3754412 C22.9223533,23.2955666 23.0360497,23.2529186 23.1529613,23.2568812 C23.2698728,23.2608438 23.3804206,23.3110924 23.4602799,23.3965705 L23.4604935,23.3966482 Z M7.43925112,17.9977196 L18.8653997,22.1564976 C19.0322898,22.2161772 19.1224956,22.3967815 19.0699607,22.5660566 C19.0174259,22.7353317 18.8408173,22.8331296 18.669463,22.7878343 L18.6391054,22.7782358 L7.21274338,18.6193802 C7.04719235,18.5587924 6.95823495,18.3790286 7.01048538,18.2106602 C7.06273582,18.0422918 7.2378362,17.9444741 7.40860236,17.988257 L7.4390376,17.9976419 L18.8651861,22.1564199 L7.43925112,17.9977196 Z M3.53301925,15.2821306 C3.53821731,15.4943829 3.54953021,15.7064428 3.56653095,15.918155 C3.57920039,16.075235 3.5071063,16.2271419 3.37740582,16.3166539 C3.24770533,16.4061659 3.08010305,16.419684 2.93773312,16.3521161 C2.79536319,16.2845482 2.699855,16.1461595 2.68718556,15.9890795 C2.66883508,15.7610407 2.65686232,15.5325335 2.6512813,15.3038256 C2.64733704,15.0617203 2.83932845,14.8617134 3.08139256,14.8557575 C3.32345666,14.8498016 3.52505205,15.0401243 3.53301925,15.2821306 L3.53301925,15.2821306 Z M24.9856292,21.5089127 C25.081252,21.5763094 25.1461785,21.6789379 25.1661205,21.794213 C25.1860626,21.9094881 25.1593861,22.0279634 25.0919616,22.1235666 C24.9600753,22.3105778 24.8229771,22.4938585 24.6808282,22.673193 C24.5295476,22.8641099 24.2521417,22.8962415 24.0612248,22.7449609 C23.8703078,22.5936803 23.8381763,22.3162744 23.9894569,22.1253574 C24.1212939,21.9591132 24.2484926,21.7890046 24.3709753,21.6152451 C24.4383721,21.5196223 24.5410005,21.4546959 24.6562756,21.4347538 C24.7715507,21.4148117 24.890026,21.4414882 24.9856292,21.5089127 L24.9856292,21.5089127 Z M3.71511188,12.9502992 C3.67690562,13.1595686 3.64471685,13.3695775 3.61819625,13.5799568 C3.58783293,13.8216945 3.36725148,13.9930473 3.12551379,13.962684 C2.88377609,13.9323207 2.71242329,13.7117392 2.7427866,13.4700015 C2.7713308,13.2434332 2.80612562,13.0169637 2.84750077,12.7916803 C2.89336423,12.5542156 3.12191964,12.3979897 3.35982947,12.4414849 C3.5977393,12.4849802 3.75623466,12.7119678 3.71511188,12.9502992 L3.71511188,12.9502992 Z M26.0964781,19.3444147 C26.2038298,19.3909572 26.2882859,19.4782524 26.3312548,19.5870838 C26.3742237,19.6959151 26.3721831,19.817361 26.3255821,19.9246873 C26.2346203,20.1345599 26.1378765,20.3418788 26.0354613,20.5464068 C25.9263382,20.7642189 25.6613049,20.8523288 25.4434927,20.7432057 C25.2256806,20.6340827 25.1375707,20.3690493 25.2466938,20.1512372 C25.3415773,19.9616294 25.4316474,19.7693025 25.5163413,19.5738099 C25.6132335,19.3503443 25.8729348,19.2477362 26.0964004,19.3446282 L26.0964781,19.3444147 Z M4.12544074,10.1255868 C4.35121425,10.2168184 4.46031954,10.4737701 4.36916379,10.6995743 C4.28937578,10.8973303 4.21500588,11.0972295 4.14613734,11.2990479 C4.06743121,11.5296002 3.81672778,11.6526957 3.58617556,11.5739896 C3.35562333,11.4952835 3.23252776,11.24458 3.31123389,11.0140278 C3.38532271,10.7970214 3.46532864,10.5820805 3.55116208,10.3694457 C3.59494547,10.2609271 3.6800622,10.1742581 3.7877718,10.1285209 C3.8954814,10.0827836 4.01695263,10.0817281 4.12544074,10.1255868 L4.12544074,10.1255868 Z M27.0904231,17.5256875 C27.0434968,17.7489504 26.9903394,17.9713962 26.9308152,18.1927336 C26.8898975,18.3449084 26.7709037,18.4636944 26.6186577,18.504346 C26.4664116,18.5449976 26.304043,18.501339 26.1927146,18.3898158 C26.0813862,18.2782927 26.0380115,18.115848 26.0789291,17.9636733 C26.1340402,17.7585145 26.1834524,17.5518673 26.2271089,17.3439696 C26.27723,17.1055505 26.511138,16.9529048 26.7495571,17.0030258 C26.9879762,17.0531469 27.1406219,17.2870549 27.0905009,17.525474 L27.0904231,17.5256875 Z M5.33544734,8.02280939 C5.43284311,8.08763694 5.50048764,8.18850893 5.52349214,8.3032231 C5.54649664,8.41793727 5.52297561,8.53709138 5.45810611,8.63445922 C5.34065032,8.8110155 5.22777474,8.9909314 5.11990644,9.17436236 C4.99640889,9.38433859 4.72607498,9.45444341 4.51609875,9.33094586 C4.30612252,9.2074483 4.23601769,8.9371144 4.35951524,8.72713816 C4.47567662,8.5295583 4.59727229,8.33564894 4.7237975,8.14546813 C4.78862506,8.04807236 4.88949705,7.98042783 5.00421122,7.95742334 C5.11892539,7.93441884 5.2380795,7.95793988 5.33544734,8.02280939 L5.33544734,8.02280939 Z M27.3528363,15.0190165 C27.352555,15.2476509 27.3459457,15.4763998 27.3328722,15.7049722 C27.3188418,15.9482478 27.1102541,16.1340878 26.8669785,16.1200574 C26.6237029,16.106027 26.4378629,15.8974393 26.4518933,15.6541636 C26.4641035,15.4422743 26.4703803,15.2300847 26.4707164,15.0178441 C26.4709259,14.8602686 26.5551849,14.7147746 26.691754,14.6361682 C26.8283231,14.5575619 26.9964541,14.5577853 27.1328137,14.6367544 C27.2691734,14.7157236 27.3530453,14.861441 27.3528363,15.0190165 Z M6.94989503,6.20989461 C7.12074702,6.38354645 7.11864577,6.66302031 6.94499393,6.83387227 C6.79379247,6.98282355 6.64678007,7.13596819 6.50412863,7.29312713 C6.39821049,7.40980901 6.23808905,7.46112086 6.0840805,7.427734 C5.93007196,7.39434714 5.80557387,7.28133382 5.75748347,7.13126508 C5.70939307,6.98119634 5.74501642,6.81687118 5.85093456,6.7001893 C6.00449456,6.53072904 6.16317803,6.36579331 6.32605316,6.20528473 C6.409376,6.12314061 6.52192661,6.07747462 6.63892919,6.07832715 C6.75593177,6.0792038 6.86779523,6.1265281 6.94989503,6.20989461 L6.94989503,6.20989461 Z M27.1036183,12.5389055 C27.1494616,12.7630499 27.1890927,12.9883184 27.2222982,13.2146332 C27.2561388,13.4548053 27.0896872,13.6772289 26.8497204,13.7124961 C26.6097536,13.7477633 26.3863449,13.5826363 26.3496524,13.3428833 C26.3187882,13.1326956 26.2820823,12.9234072 26.2395773,12.7152611 C26.1963293,12.4790963 26.3499433,12.2517256 26.5851853,12.2037114 C26.8204273,12.1556972 27.0508576,12.3046824 27.1036183,12.5389055 L27.1036183,12.5389055 Z M11.3611858,7.22162834 L22.7873343,11.3804063 C22.9528855,11.440994 23.0418431,11.6207579 22.9895926,11.7891264 C22.9373421,11.9574949 22.7622416,12.0553126 22.5914753,12.0115295 L22.5610401,12.0021446 L11.1348916,7.84336662 C10.9680012,7.78368713 10.8777952,7.60308273 10.9303302,7.4338075 C10.9828651,7.26453227 11.1594738,7.16673438 11.3308283,7.21202987 L11.3611858,7.22162834 L22.7873343,11.3804063 L11.3611858,7.22162834 Z M8.8943932,4.76567209 C8.95796135,4.86386592 8.9799152,4.98329162 8.95542446,5.09767319 C8.93093372,5.21205475 8.86200485,5.31202116 8.76380358,5.37557782 C8.58536027,5.49095887 8.41014845,5.61126247 8.23836984,5.73635009 C8.04152309,5.87983482 7.76562992,5.83657636 7.62214519,5.63972961 C7.47866046,5.44288287 7.52191892,5.16698969 7.71876567,5.02350496 C7.90376164,4.88868387 8.09245987,4.75901756 8.28464287,4.63465547 C8.38290263,4.57111582 8.50238596,4.54923056 8.61678756,4.57381793 C8.73118917,4.59840529 8.83112981,4.66744947 8.89460668,4.76574979 L8.8943932,4.76567209 Z M26.3476113,10.1265289 C26.4379704,10.3366515 26.5221558,10.5491212 26.6006722,10.7638799 C26.6547928,10.9118591 26.6258563,11.0774706 26.5247628,11.19833 C26.4236693,11.3191894 26.2657773,11.3769353 26.1105632,11.3498155 C25.9553492,11.3226957 25.8263937,11.2148302 25.7722731,11.0668509 C25.6993474,10.8673387 25.6209253,10.6698785 25.5370967,10.4746964 C25.4749026,10.3299119 25.4946745,10.1629453 25.5889644,10.0366914 C25.6832544,9.91043747 25.8377376,9.84407712 25.9942217,9.86260766 C26.1507058,9.8811382 26.2854171,9.9817444 26.3476113,10.1265289 L26.3476113,10.1265289 Z M11.1000342,3.73929205 C11.1882626,3.96630717 11.0757623,4.22186356 10.8487523,4.3101053 C10.650747,4.38704963 10.454904,4.46944662 10.2614472,4.55720209 C10.0405696,4.65325318 9.78348263,4.55432827 9.68396371,4.3349913 C9.5844448,4.11565434 9.67930725,3.85704075 9.89704915,3.75407871 C10.1052127,3.65956496 10.3159457,3.57081574 10.5290074,3.48793248 C10.6380596,3.44550118 10.7595044,3.44814895 10.8666037,3.49529284 C10.9737029,3.54243674 11.0576758,3.6302115 11.1000342,3.73929205 L11.1000342,3.73929205 Z M25.1225486,7.92401291 C25.2534854,8.11166843 25.3792964,8.30277779 25.4996904,8.49747676 C25.5825547,8.63151425 25.5876164,8.79957758 25.5129686,8.93835892 C25.4383209,9.07714027 25.2953046,9.16555543 25.1377926,9.17029928 C24.9802806,9.17504313 24.8322026,9.09539496 24.7493383,8.96135746 C24.6375609,8.7805956 24.5207989,8.60296394 24.3991866,8.42866676 C24.2623965,8.22893841 24.3121728,7.95628145 24.5107117,7.8177707 C24.7092506,7.67925994 24.9823274,7.72667828 25.1225486,7.92401291 L25.1225486,7.92401291 Z M13.4736456,3.17881058 C13.5137964,3.41925938 13.3517557,3.64656487 13.1114427,3.68700684 C12.9020034,3.72216632 12.6935814,3.76313824 12.4864179,3.80987517 C12.2487777,3.86346344 12.0126903,3.71425984 11.959102,3.47661959 C11.9055138,3.23897935 12.0547174,3.00289198 12.2923576,2.9493037 C12.5154733,2.89901386 12.7399432,2.85493308 12.9655075,2.81711239 C13.205651,2.77684508 13.4329879,2.9388195 13.4733544,3.17894639 L13.4736456,3.17881058 Z M23.4839607,6.02193089 C23.6501586,6.17913939 23.8120652,6.3408308 23.9691757,6.50706318 C24.0792642,6.62121461 24.1195867,6.78568437 24.0747807,6.93781078 C24.0299746,7.08993719 23.90694,7.20629311 23.7525522,7.24254786 C23.5981643,7.27880261 23.4361985,7.22937303 23.3283624,7.1130914 C23.1824381,6.95877105 23.0322332,6.8085553 22.8779235,6.66261975 C22.7634373,6.55434775 22.7154101,6.39322264 22.7519333,6.2399387 C22.7884565,6.08665475 22.9039814,5.96449944 23.0549908,5.9194875 C23.2060002,5.87447556 23.3695522,5.91344536 23.4840384,6.02171737 L23.4839607,6.02193089 Z M15.8786753,3.11262599 C15.8696564,3.35598709 15.6650908,3.54597563 15.4217277,3.53701213 C15.2094016,3.52912648 14.9967632,3.52741377 14.7847637,3.53125309 C14.5412359,3.53589315 14.3400562,3.34223644 14.3354162,3.09870874 C14.3307761,2.85518103 14.5244328,2.65400131 14.7679605,2.64936126 C14.9967747,2.64498833 15.2256665,2.64702367 15.4543668,2.65546488 C15.5712591,2.65981535 15.6816347,2.71042604 15.7612092,2.79616175 C15.8407838,2.88189747 15.883038,2.9957342 15.8786753,3.11262599 L15.8786753,3.11262599 Z M21.4881802,4.48938671 C21.6831383,4.60942974 21.8745036,4.7346935 22.0622761,4.86517806 C22.1916403,4.95523905 22.2631308,5.1074738 22.2498178,5.26453696 C22.2365047,5.42160011 22.1404108,5.55963004 21.9977336,5.6266322 C21.8550564,5.69363436 21.687472,5.67942954 21.5581079,5.58936855 C21.3838756,5.46807111 21.2062854,5.35166955 21.0255457,5.24030036 C20.8896113,5.15849049 20.8080955,5.00997061 20.8120779,4.85136683 C20.8160602,4.69276304 20.9049269,4.54852128 21.0447958,4.47363655 C21.1846646,4.39875181 21.3539774,4.40476624 21.4881802,4.48938671 L21.4881802,4.48938671 Z M18.2720672,3.54078376 C18.2440149,3.6543407 18.1719991,3.75210191 18.0718641,3.8125592 C17.971729,3.8730165 17.8516779,3.89121704 17.738123,3.86315659 C17.5313615,3.8120809 17.3239383,3.76680923 17.1155621,3.72747731 C16.8770821,3.68141758 16.7207346,3.45120128 16.7658519,3.21254118 C16.8109692,2.97388109 17.0405661,2.81662534 17.2794025,2.86079952 C17.5038703,2.90308679 17.7274433,2.95181857 17.9496944,3.00683946 C18.0632514,3.03489185 18.1610126,3.10690758 18.2214699,3.20704265 C18.2819272,3.30717772 18.3001277,3.42722881 18.2720672,3.54078376 L18.2720672,3.54078376 Z M19.223822,3.39514441 C19.4390391,3.47347702 19.6516533,3.55763245 19.8611794,3.6469506 C20.0852136,3.74264751 20.1892516,4.00184082 20.0935547,4.22587506 C19.9978578,4.4499093 19.7386645,4.55394726 19.5146302,4.45825035 C19.3193072,4.37477949 19.1217394,4.29666235 18.9221482,4.22398641 C18.7740593,4.17012003 18.6659637,4.04133171 18.6385897,3.8861461 C18.6112156,3.73096049 18.6687228,3.57296053 18.789444,3.47167718 C18.9101652,3.37039383 19.0757547,3.34121873 19.223822,3.39514441 Z" id="形状"></path>
                    </g>
                    <text id="Finished" transform="translate(15.042804, 14.340768) rotate(-19.000000) translate(-15.042804, -14.340768) " font-family="STYuanti-SC-Regular, Yuanti SC" font-size="6" font-weight="normal">
                        <tspan x="4.04280396" y="16.3407681">Finished</tspan>
                    </text>
                </g>
            </g>
        </g>
    </g>
</svg>