<?xml version="1.0" encoding="UTF-8"?>
<svg width="64px" height="64px" viewBox="0 0 64 64" version="1.1" xmlns="http://www.w3.org/2000/svg" xmlns:xlink="http://www.w3.org/1999/xlink">
    <title>失败</title>
    <g id="批量转账" stroke="none" stroke-width="1" fill="none" fill-rule="evenodd">
        <g id="转账失败" transform="translate(-156.000000, -271.000000)" fill-rule="nonzero">
            <g id="通知" transform="translate(32.000000, 235.000000)">
                <g id="失败" transform="translate(124.000000, 36.000000)">
                    <circle id="椭圆形" fill="#FBE7E7" cx="32" cy="32" r="32"></circle>
                    <path d="M31.4886173,21.3333333 C32.6532421,21.3333333 33.5983307,22.2784219 33.5983307,23.4430467 L33.5983307,33.990629 C33.5983307,35.1557915 32.6537798,36.1003424 31.4886173,36.1003424 C30.3234548,36.1003424 29.378904,35.1557915 29.378904,33.990629 L29.378904,23.4430467 C29.378904,22.2774374 30.3239925,21.3333333 31.4886173,21.3333333 L31.4886173,21.3333333 Z M31.4886173,42.428498 C30.7242025,42.4450135 30.010679,42.0466495 29.6236243,41.3872622 C29.2365697,40.727875 29.2365697,39.9106788 29.6236243,39.2512915 C30.010679,38.5919043 30.7242025,38.1935403 31.4886173,38.2100558 C32.6357538,38.2348401 33.55276,39.1718726 33.55276,40.3192769 C33.55276,41.4666811 32.6357538,42.4037136 31.4886173,42.428498 Z" id="形状" fill="#EE0A24"></path>
                </g>
            </g>
        </g>
    </g>
</svg>