<?xml version="1.0" encoding="UTF-8"?>
<svg width="67px" height="22px" viewBox="0 0 67 22" version="1.1" xmlns="http://www.w3.org/2000/svg" xmlns:xlink="http://www.w3.org/1999/xlink">
    <title>logo水印</title>
    <g id="红包" stroke="none" stroke-width="1" fill="none" fill-rule="evenodd">
        <g id="02领取红包-未连接钱包" transform="translate(-154.000000, -770.000000)" fill="#DB3533">
            <g id="编组-3" transform="translate(-47.000000, 79.000000)">
                <g id="logo水印" transform="translate(201.000000, 691.000000)">
                    <path d="M16.2937581,0 C17.4949923,0 18.6063203,0.631426527 19.2218284,1.65992515 L19.2490558,1.70624191 L23.5428139,9.14324908 C24.1428707,10.182578 24.1522466,11.4593156 23.5709415,12.5060635 L23.5428139,12.5557329 L19.2490558,19.9927401 C18.6484387,21.0330394 17.5459432,21.6797644 16.3474833,21.6985608 L16.2937581,21.698982 L7.70624191,21.698982 C6.50500773,21.698982 5.3936797,21.0675554 4.77817159,20.0390568 L4.75094423,19.9927401 L0.457186142,12.5557329 C-0.142870669,11.516404 -0.152246557,10.2396664 0.429058479,9.19291851 L0.457186142,9.14324908 L4.8822908,1.47874299 C5.402209,0.578218235 6.35605858,0.0179835613 7.39329625,0.0004252231 L7.44354878,0 L16.2937581,0 Z M12.0673601,3.45763639 L4.78258351,16.0338006 L10.9924526,12.7130723 C11.6639033,12.354014 12.4704632,12.354674 13.1413254,12.7148309 L19.3235518,16.0338006 L12.0673601,3.45763639 Z" id="ave"></path>
                    <text id="Ave.ai" font-family="RotondaC-Bold, RotondaC" font-size="14" font-weight="bold">
                        <tspan x="29" y="16">Ave.ai</tspan>
                    </text>
                </g>
            </g>
        </g>
    </g>
</svg>