<?xml version="1.0" standalone="no"?><!DOCTYPE svg PUBLIC "-//W3C//DTD SVG 1.1//EN" "http://www.w3.org/Graphics/SVG/1.1/DTD/svg11.dtd"><svg t="1666404112815" class="icon" viewBox="0 0 1024 1024" version="1.1" xmlns="http://www.w3.org/2000/svg" p-id="1960" xmlns:xlink="http://www.w3.org/1999/xlink" width="200" height="200"><path d="M170.666667 404.693333c0-13.354667 4.736-24.661333 14.250666-33.92 9.514667-9.258667 20.949333-13.866667 34.304-13.866666h48.554667v216.576H219.221333c-13.354667 0-24.789333-4.608-34.304-13.866667A45.525333 45.525333 0 0 1 170.666667 525.696V404.693333z m539.562666-198.869333c22.101333-21.077333 42.154667-32.64 60.16-34.688 17.92-2.048 33.877333 2.688 47.786667 14.250667 13.866667 11.562667 25.685333 28.544 35.413333 50.858666 9.813333 22.357333 17.749333 47.317333 23.893334 74.794667 6.186667 27.477333 10.794667 56.277333 13.909333 86.314667 3.072 30.08 4.608 58.709333 4.608 85.973333 0 27.221333-1.92 54.442667-5.76 81.706667-3.84 27.221333-9.514667 52.778667-16.981333 76.672-7.466667 23.893333-16.213333 44.842667-26.197334 62.848-10.026667 17.962667-21.205333 31.317333-33.536 40.064-12.373333 8.746667-25.6 11.818667-39.68 9.258666-14.165333-2.56-28.928-12.586667-44.373333-30.08-14.890667-17.493333-35.029333-32-60.458667-43.52-25.472-11.605333-53.205333-21.333333-83.285333-29.312a915.2 915.2 0 0 0-91.306667-19.285333 10606.933333 10606.933333 0 0 0-84.821333-13.098667 1177.045333 1177.045333 0 0 1-64.341333-11.178666c-17.237333-3.584-26.88-7.936-28.928-13.098667V353.024c2.090667-7.168 10.154667-13.098667 24.32-17.706667 14.08-4.608 32.085333-8.96 53.930666-13.098666s46.506667-8.618667 73.984-13.482667c27.52-4.906667 55.509333-11.562667 84.053334-20.053333a562.133333 562.133333 0 0 0 83.626666-32.384 297.216 297.216 0 0 0 73.984-50.474667z m-277.504 472.490667c2.56 6.186667 5.674667 12.842667 9.258667 20.053333 3.072 6.698667 7.210667 14.378667 12.373333 23.125333 5.12 8.746667 11.264 18.261333 18.474667 28.501334 8.746667 12.373333 17.578667 25.344 26.581333 38.954666 8.96 13.610667 15.786667 25.941333 20.437334 36.992 4.608 11.050667 6.016 20.181333 4.266666 27.349334-1.834667 7.210667-9.173333 10.794667-22.016 10.794666h-43.946666c-10.24 0-19.754667-1.92-28.501334-5.76a83.2 83.2 0 0 1-25.045333-17.749333 217.130667 217.130667 0 0 1-24.661333-30.421333 656.64 656.64 0 0 1-27.349334-43.946667c-11.818667-19.541333-20.053333-36.608-24.704-51.285333a262.229333 262.229333 0 0 1-9.216-36.608 69.930667 69.930667 0 0 1 0-29.269334c4.096 0.512 8.96 1.536 14.634667 3.072l16.938667 3.84c6.698667 1.536 14.421333 3.114667 23.125333 4.650667 8.746667 2.048 16.597333 3.968 23.509333 5.76 6.954667 1.792 13.226667 3.754667 18.901334 5.802667 6.144 2.048 11.818667 4.096 16.938666 6.144z" fill="#3B7CFB" p-id="1961"></path></svg>