<?xml version="1.0" standalone="no"?><!DOCTYPE svg PUBLIC "-//W3C//DTD SVG 1.1//EN" "http://www.w3.org/Graphics/SVG/1.1/DTD/svg11.dtd"><svg t="1666404116663" class="icon" viewBox="0 0 1024 1024" version="1.1" xmlns="http://www.w3.org/2000/svg" p-id="2109" xmlns:xlink="http://www.w3.org/1999/xlink" width="200" height="200"><path d="M0 512a512 512 0 1 0 1024 0c0-282.770286-229.229714-512-512-512S0 229.229714 0 512z" fill="#FFDA71" p-id="2110"></path><path d="M768 387.510857v382.098286c0 16.822857-6.765714 32.950857-18.761143 44.836571a64.292571 64.292571 0 0 1-45.238857 18.578286H320c-16.969143 0-33.243429-6.692571-45.238857-18.578286A63.085714 63.085714 0 0 1 256 769.609143V387.510857a384.182857 384.182857 0 0 0 192.914286 91.757714A63.817143 63.817143 0 0 0 512 531.968c31.158857 0 57.782857-22.272 63.049143-52.699429A384.109714 384.109714 0 0 0 768 387.474286z m-64-188.416c16.969143 0 33.243429 6.692571 45.238857 18.578286 11.995429 11.885714 18.761143 28.013714 18.761143 44.836571v80.822857a352.329143 352.329143 0 0 1-195.620571 104.228572 64 64 0 0 0-60.416-42.422857 64 64 0 0 0-60.379429 42.422857A352.256 352.256 0 0 1 256 343.332571v-80.822857c0-16.822857 6.765714-32.914286 18.761143-44.836571a64.292571 64.292571 0 0 1 45.238857-18.578286h384z" fill="#ED4A4A" p-id="2111"></path></svg>