<?xml version="1.0" standalone="no"?><!DOCTYPE svg PUBLIC "-//W3C//DTD SVG 1.1//EN" "http://www.w3.org/Graphics/SVG/1.1/DTD/svg11.dtd"><svg t="1666404122887" class="icon" viewBox="0 0 1024 1024" version="1.1" xmlns="http://www.w3.org/2000/svg" p-id="2413" xmlns:xlink="http://www.w3.org/1999/xlink" width="200" height="200"><path d="M972.79401 307.200051v614.805604c0 27.033424-12.185521 52.991656-33.791781 72.140331a123.186399 123.186399 0 0 1-81.407471 29.849406H166.399251c-30.566201 0-59.903611-10.75193-81.45867-29.849406A96.460173 96.460173 0 0 1 51.2 922.005655V307.200051c97.535366 77.465096 218.008183 128.664764 347.236143 147.608641 9.420739 48.998082 57.343627 84.837849 113.509662 84.837848 56.114835 0 104.088923-35.839767 113.509662-84.837848C754.734627 435.864815 875.258644 384.665148 972.79401 307.200051z m-115.199252-307.198003c30.515002 0 59.852411 11.007928 81.407471 30.617401 21.60626 19.609473 33.79178 46.1821 33.791781 73.88112v133.221534C878.996219 328.089515 755.451422 388.351524 620.693898 409.599386c-16.230295-41.881328-59.801211-69.938745-108.748093-69.938746-48.946882 0-92.517799 28.057418-108.696893 69.938746C268.491388 388.351524 144.895391 328.038316 51.2 237.722103V104.500569C51.2 76.801549 63.43672 50.228922 84.99178 30.619449A121.445611 121.445611 0 0 1 166.399251 0.002048h691.195507z" fill="#ED4A4A" p-id="2414"></path></svg>