<?xml version="1.0" standalone="no"?><!DOCTYPE svg PUBLIC "-//W3C//DTD SVG 1.1//EN" "http://www.w3.org/Graphics/SVG/1.1/DTD/svg11.dtd"><svg t="1666404106332" class="icon" viewBox="0 0 1024 1024" version="1.1" xmlns="http://www.w3.org/2000/svg" p-id="1810" xmlns:xlink="http://www.w3.org/1999/xlink" width="200" height="200"><path d="M979.322479 1023.853756H44.385033A44.385033 44.385033 0 0 1 0 979.395601V44.604399C0 19.962296 19.889175 0.146244 44.385033 0.146244h387.400171a44.385033 44.385033 0 1 1 0 88.770066h-342.942016v846.094258h846.021136V593.969723a44.385033 44.385033 0 1 1 88.843188 0v385.425878a44.385033 44.385033 0 0 1-44.385033 44.458155z" fill="#999999" p-id="1811"></path><path d="M1023.561268 41.460154V40.802057a47.529277 47.529277 0 0 0-0.804341-5.996002c0-0.146244 0-0.292488-0.146244-0.365609a48.991717 48.991717 0 0 0-1.828049-6.069124V28.225079c-0.73122-1.974293-1.754927-3.802342-2.778635-5.630392l-0.073122-0.292488a44.677521 44.677521 0 0 0-3.363611-5.045415L1014.201657 16.818052l-1.681806-2.047415-0.146243-0.292488a14.916881 14.916881 0 0 0-1.974294-1.974293L1009.814339 11.992002l-1.974293-1.901171-0.146244-0.073122a16.37932 16.37932 0 0 0-2.339903-1.754927l-0.438732-0.36561a46.651814 46.651814 0 0 0-5.337903-3.217366L999.577264 4.533562a36.560983 36.560983 0 0 0-12.211369-3.948586l-0.365609-0.073122-2.924879-0.36561h-0.36561C982.759212 0 982.027992 0 981.150528 0H668.627249a44.385033 44.385033 0 1 0 0 88.770066h203.498429L480.557555 480.557555a44.311911 44.311911 0 0 0 31.442445 75.681234 44.604399 44.604399 0 0 0 31.442445-12.942588l391.495001-391.568123V352.447872a44.385033 44.385033 0 1 0 88.770066 0V44.531277c0-1.023708 0-2.120537-0.146244-3.071123z" fill="#999999" p-id="1812"></path></svg>